g Diamnet
v -1.144409E-05 -0.6572099 1.144409E-05
v 0.3749943 0.3128061 -0.6495193
v -0.3749943 0.3128061 -0.6495193
v -1.144409E-05 -0.6572099 1.144409E-05
v -0.3749943 0.3128061 -0.6495193
v -0.75 0.3128061 -1.144409E-05
v -1.144409E-05 -0.6572099 1.144409E-05
v -0.75 0.3128061 -1.144409E-05
v -0.3749943 0.3128061 0.6495193
v -1.144409E-05 -0.6572099 1.144409E-05
v -0.3749943 0.3128061 0.6495193
v 0.3749943 0.3128061 0.6495193
v -1.144409E-05 -0.6572099 1.144409E-05
v 0.3749943 0.3128061 0.6495193
v 0.75 0.3128061 1.144409E-05
v -1.144409E-05 -0.6572099 1.144409E-05
v 0.75 0.3128061 1.144409E-05
v 0.3749943 0.3128061 -0.6495193
v 0.2663424 0.6572099 -0.4613298
v -1.144409E-05 0.6572099 1.144409E-05
v -0.2663424 0.6572099 -0.4613298
v -0.5326962 0.6572099 -1.144409E-05
v -0.2663424 0.6572099 0.4613298
v 0.2663424 0.6572099 0.4613298
v 0.5326962 0.6572099 1.144409E-05
v 0.3749943 0.3128061 -0.6495193
v 0.2663424 0.6572099 -0.4613298
v -0.2663424 0.6572099 -0.4613298
v -0.3749943 0.3128061 -0.6495193
v -0.3749943 0.3128061 -0.6495193
v -0.2663424 0.6572099 -0.4613298
v -0.5326962 0.6572099 -1.144409E-05
v -0.75 0.3128061 -1.144409E-05
v -0.75 0.3128061 -1.144409E-05
v -0.5326962 0.6572099 -1.144409E-05
v -0.2663424 0.6572099 0.4613298
v -0.3749943 0.3128061 0.6495193
v -0.3749943 0.3128061 0.6495193
v -0.2663424 0.6572099 0.4613298
v 0.2663424 0.6572099 0.4613298
v 0.3749943 0.3128061 0.6495193
v 0.3749943 0.3128061 0.6495193
v 0.2663424 0.6572099 0.4613298
v 0.5326962 0.6572099 1.144409E-05
v 0.75 0.3128061 1.144409E-05
v 0.75 0.3128061 1.144409E-05
v 0.5326962 0.6572099 1.144409E-05
v 0.2663424 0.6572099 -0.4613298
v 0.3749943 0.3128061 -0.6495193
vt 0.5001551 0.3125
vt 0.3750517 0.6884617
vt 0.4167528 0.6884617
vt 0.5001551 0.3125
vt 0.4167528 0.6884617
vt 0.458454 0.6884617
vt 0.5001551 0.3125
vt 0.458454 0.6884617
vt 0.5001551 0.6884617
vt 0.5001551 0.3125
vt 0.5001551 0.6884617
vt 0.5418562 0.6884617
vt 0.5001551 0.3125
vt 0.5418562 0.6884617
vt 0.5835574 0.6884617
vt 0.5001551 0.3125
vt 0.5835574 0.6884617
vt 0.6252584 0.6884617
vt 0.5783447 0.9790665
vt 0.5001551 0.8376736
vt 0.4219655 0.9790665
vt 0.3437758 0.8435378
vt 0.4219655 0.7086607
vt 0.5783447 0.7086607
vt 0.6565343 0.8435378
vt 0.5783447 0.9790665
vt 0.5783447 0.9790665
vt 0.4219655 0.9790665
vt 0.4219655 0.9790665
vt 0.4219655 0.9790665
vt 0.4219655 0.9790665
vt 0.3437758 0.8435378
vt 0.3437758 0.8435378
vt 0.3437758 0.8435378
vt 0.3437758 0.8435378
vt 0.4219655 0.7086607
vt 0.4219655 0.7086607
vt 0.4219655 0.7086607
vt 0.4219655 0.7086607
vt 0.5783447 0.7086607
vt 0.5783447 0.7086607
vt 0.5783447 0.7086607
vt 0.5783447 0.7086607
vt 0.6565343 0.8435378
vt 0.6565343 0.8435378
vt 0.6565343 0.8435378
vt 0.6565343 0.8435378
vt 0.5783447 0.9790665
vt 0.5783447 0.9790665
vn 0.0007712535 -0.5598227 -0.8286121
vn 0.0007712535 -0.5598227 -0.8286121
vn 0.0007712535 -0.5598227 -0.8286121
vn -0.7170231 -0.5598227 -0.4153028
vn -0.7170231 -0.5598227 -0.4153028
vn -0.7170231 -0.5598227 -0.4153028
vn -0.7170231 -0.5598227 0.4153028
vn -0.7170231 -0.5598227 0.4153028
vn -0.7170231 -0.5598227 0.4153028
vn 0.0007712535 -0.5598227 0.8286121
vn 0.0007712535 -0.5598227 0.8286121
vn 0.0007712535 -0.5598227 0.8286121
vn 0.7185656 -0.5598227 0.4126281
vn 0.7185656 -0.5598227 0.4126281
vn 0.7185656 -0.5598227 0.4126281
vn 0.7185656 -0.5598227 -0.4126281
vn 0.7185656 -0.5598227 -0.4126281
vn 0.7185656 -0.5598227 -0.4126281
vn 0.0007712535 0.9999998 0
vn 0.0007712535 0.9999998 0
vn 0.0007712535 0.9999998 0
vn 0.0007712535 0.9999998 0
vn 0.0007712535 0.9999998 0
vn 0.0007712535 0.9999998 0
vn 0.0007712535 0.9999998 0
vn 0.0007712535 0.4823596 -0.8759729
vn 0.0007712535 0.4823596 -0.8759729
vn 0.0007712535 0.4823596 -0.8759729
vn 0.0007712535 0.4823596 -0.8759729
vn -0.7584344 0.4823596 -0.4382996
vn -0.7584344 0.4823596 -0.4382996
vn -0.7584344 0.4823596 -0.4382996
vn -0.7584344 0.4823596 -0.4382996
vn -0.7584344 0.4823596 0.4382996
vn -0.7584344 0.4823596 0.4382996
vn -0.7584344 0.4823596 0.4382996
vn -0.7584344 0.4823596 0.4382996
vn 0.0007712535 0.4823596 0.8759729
vn 0.0007712535 0.4823596 0.8759729
vn 0.0007712535 0.4823596 0.8759729
vn 0.0007712535 0.4823596 0.8759729
vn 0.7599769 0.4823596 0.4356195
vn 0.7599769 0.4823596 0.4356195
vn 0.7599769 0.4823596 0.4356195
vn 0.7599769 0.4823596 0.4356195
vn 0.7599769 0.4823596 -0.4356195
vn 0.7599769 0.4823596 -0.4356195
vn 0.7599769 0.4823596 -0.4356195
vn 0.7599769 0.4823596 -0.4356195
g Diamnet_0
f 3/3/3 2/2/2 1/1/1
f 6/6/6 5/5/5 4/4/4
f 9/9/9 8/8/8 7/7/7
f 12/12/12 11/11/11 10/10/10
f 15/15/15 14/14/14 13/13/13
f 18/18/18 17/17/17 16/16/16
f 21/21/21 20/20/20 19/19/19
f 22/22/22 20/20/20 21/21/21
f 23/23/23 20/20/20 22/22/22
f 24/24/24 20/20/20 23/23/23
f 25/25/25 20/20/20 24/24/24
f 19/19/19 20/20/20 25/25/25
f 28/28/28 27/27/27 26/26/26
f 29/29/29 28/28/28 26/26/26
f 32/32/32 31/31/31 30/30/30
f 33/33/33 32/32/32 30/30/30
f 36/36/36 35/35/35 34/34/34
f 37/37/37 36/36/36 34/34/34
f 40/40/40 39/39/39 38/38/38
f 41/41/41 40/40/40 38/38/38
f 44/44/44 43/43/43 42/42/42
f 45/45/45 44/44/44 42/42/42
f 48/48/48 47/47/47 46/46/46
f 49/49/49 48/48/48 46/46/46
